<?xml version="1.0"?>
<svg xmlns="http://www.w3.org/2000/svg" id="Flat" enable-background="new 0 0 64 64" height="512px" viewBox="0 0 64 64" width="512px" class=""><g><circle cx="13" cy="8" fill="#76cc7a" r="5" data-original="#76CC7A" class="" data-old_color="#76cc7a" style="fill:#76CACC"/><path d="m23 23h-20v-4c0-3.314 2.686-6 6-6h8c3.314 0 6 2.686 6 6z" fill="#76cc7a" data-original="#76CC7A" class="" data-old_color="#76cc7a" style="fill:#76CACC"/><circle cx="51" cy="46" fill="#4ac3ed" r="5" data-original="#4AC3ED" class="" style="fill:#871ABA" data-old_color="#4ac3ed"/><path d="m61 61h-20v-4c0-3.314 2.686-6 6-6h8c3.314 0 6 2.686 6 6z" fill="#4ac3ed" data-original="#4AC3ED" class="" style="fill:#871ABA" data-old_color="#4ac3ed"/><path d="m33.515 29.978-1.515 1.575-1.515-1.575c-1.255-1.304-3.289-1.304-4.544 0s-1.255 3.419 0 4.724l6.059 6.298 6.059-6.298c1.255-1.304 1.255-3.419 0-4.724s-3.289-1.304-4.544 0z" fill="#e89d43" data-original="#E89D43" class="" style="fill:#FB5252" data-old_color="#e89d43"/><g fill="#454a6d"><path d="m52 36h-2v-19h-21v-2h23z" data-original="#454A6D" class="active-path" style="fill:#000000" data-old_color="#454A6D"/><path d="m32.293 20.707-4.707-4.707 4.707-4.707 1.414 1.414-3.293 3.293 3.293 3.293z" data-original="#454A6D" class="active-path" style="fill:#000000" data-old_color="#454A6D"/><path d="m35 55h-23v-27h2v25h21z" data-original="#454A6D" class="active-path" style="fill:#000000" data-old_color="#454A6D"/><path d="m31.707 58.707-1.414-1.414 3.293-3.293-3.293-3.293 1.414-1.414 4.707 4.707z" data-original="#454A6D" class="active-path" style="fill:#000000" data-old_color="#454A6D"/></g></g> </svg>
